<?xml version="1.0" encoding="utf-8"?>
<!-- Generator: Adobe Illustrator 27.9.0, SVG Export Plug-In . SVG Version: 6.00 Build 0)  -->
<svg version="1.1" id="Layer_1" xmlns="http://www.w3.org/2000/svg" xmlns:xlink="http://www.w3.org/1999/xlink" x="0px" y="0px"
	 viewBox="0 0 114.61 52.5" style="enable-background:new 0 0 114.61 52.5;" xml:space="preserve">
<style type="text/css">
	.st0{fill:#231F20;}
	.st1{fill:#CC9267;}
	.st2{fill:#C32026;}
	.st3{fill:#CA9164;}
	.st4{fill:#29251C;}
	.st5{fill:#CB9363;}
	.st6{fill:#CD9265;}
	.st7{fill:#28281C;}
	.st8{fill:#CA9066;}
	.st9{fill:#C6895F;}
	.st10{fill:#27221C;}
	.st11{fill:#C6885D;}
	.st12{fill:#282720;}
	.st13{fill:#C6A459;}
	.st14{fill:#C6A454;}
	.st15{fill:#C5A159;}
	.st16{fill:#B59E63;}
	.st17{fill:#C5A454;}
	.st18{fill:#C7A656;}
	.st19{fill:#CAA65F;}
	.st20{fill:#C4A556;}
	.st21{fill:#C9A45B;}
	.st22{fill:#C7A154;}
	.st23{fill:#C3895A;}
	.st24{fill:#C98F61;}
	.st25{fill:#25231B;}
	.st26{fill:#C6A158;}
	.st27{fill:#C3A55F;}
	.st28{fill:#C19F5C;}
	.st29{fill:#CCAA62;}
	.st30{fill:#C4A15D;}
</style>
<g>
	<g>
		<g>
			<g>
				<path class="st0" d="M79.22,20.48c-0.11,0.11-0.17,0.16-0.18,0.22c-0.1,2.24-0.29,4.48,0.07,6.71c0.01-2.18-0.07-4.37,0.07-6.59
					c1.61-0.42,3.1-0.23,4.56-0.2c-0.48-0.13-1-0.09-1.49-0.15C81.22,20.33,80.18,20.32,79.22,20.48z"/>
				<path class="st0" d="M94.27,21.43c-0.86-2.26-2.6-3.65-4.72-4.74c0.45-0.33,0.87-0.59,1.24-0.92c1.78-1.58,2.28-3.62,2.13-5.92
					C92.79,7.88,92,6.27,90.36,5.13c-1.66-1.16-3.56-1.63-5.55-1.64c-5.48-0.03-10.95-0.01-16.43-0.01c-0.24,0-0.51-0.08-0.69,0.14
					c0,0.68,0,1.33,0,1.98c1.65,0.29,2.27,0.89,2.27,2.31c0.02,6.93,0.02,13.87,0.01,20.8c0,1.33-0.62,1.93-1.96,2.06
					c-0.13,0.01-0.25,0.02-0.35,0.19c0,0.65,0,1.34,0,2.04c5.31,0.05,10.62,0.05,15.93-0.06c1.26-0.03,2.52-0.02,3.78-0.25
					C93.03,31.66,95.92,26.97,94.27,21.43z M78.25,14.72c0-2.08,0-4.17,0-6.4c1.66,0.12,3.3-0.31,4.83,0.56
					c0.18,0.1,0.42,0.16,0.46,0.42c1.79,1.1,1.34,4.49-0.99,5.35c-1.35,0.5-2.73,0.39-4.11,0.34
					C78.29,14.96,78.25,14.86,78.25,14.72z M86.32,25.04c-0.38,1.58-1.45,2.53-3.03,2.91c-0.58,0.14-1.18,0.23-1.78,0.17
					c-1.06,0.18-2.12,0.08-3.21,0.03c0-2.81,0-5.54,0-8.39c1.85,0.06,3.67-0.26,5.46,0.28c0.51,0.15,1.01,0.35,1.34,0.81
					C86.46,21.98,86.71,23.44,86.32,25.04z"/>
			</g>
		</g>
		<g>
			<path class="st1" d="M79.22,20.48c-0.11,0.11-0.17,0.16-0.18,0.22c-0.1,2.24-0.29,4.48,0.07,6.71c0.01-2.18-0.07-4.37,0.07-6.59
				c1.61-0.42,3.1-0.23,4.56-0.2c-0.48-0.13-1-0.09-1.49-0.15C81.22,20.33,80.18,20.32,79.22,20.48z"/>
			<path class="st1" d="M91.25,18.85c-1.17-0.95-2.48-1.57-3.92-2.03c2.18-1.02,3.97-2.3,4.48-4.82c0.58-2.89-0.43-5.58-3.15-6.77
				c-1.38-0.61-2.82-0.88-4.33-0.88c-4.91,0-9.81,0-14.72,0c-0.31,0-0.63-0.07-0.94,0.1c-0.09,0.45,0.23,0.51,0.43,0.6
				c1.16,0.49,1.65,1.41,1.73,2.6c0.04,0.57,0.08,1.14,0.08,1.71c0.01,5.25,0.01,10.51,0.01,15.76c0,1.33-0.03,2.66-0.05,3.99
				c-0.02,1.14-0.64,1.88-1.63,2.36c-0.24,0.12-0.57,0.12-0.58,0.54c0.28,0.2,0.6,0.12,0.9,0.12c4.78,0,9.56,0,14.34-0.02
				c1.61-0.01,3.22-0.14,4.76-0.65c2.68-0.88,4.39-2.69,4.89-5.5C94.03,23.21,93.56,20.74,91.25,18.85z M78.25,14.72
				c0-2.08,0-4.17,0-6.4c1.66,0.12,3.3-0.31,4.83,0.56c0.18,0.1,0.42,0.16,0.46,0.42c1.79,1.1,1.34,4.49-0.99,5.35
				c-1.35,0.5-2.73,0.39-4.11,0.34C78.29,14.96,78.25,14.86,78.25,14.72z M86.32,25.04c-0.38,1.58-1.45,2.53-3.03,2.91
				c-0.58,0.14-1.18,0.23-1.78,0.17c-1.06,0.18-2.12,0.08-3.21,0.03c0-2.81,0-5.54,0-8.39c1.85,0.06,3.67-0.26,5.46,0.28
				c0.51,0.15,1.01,0.35,1.34,0.81C86.46,21.98,86.71,23.44,86.32,25.04z"/>
		</g>
		<g>
			<path class="st2" d="M79.22,20.48c-0.11,0.11-0.17,0.16-0.18,0.22c-0.1,2.24-0.29,4.48,0.07,6.71c0.01-2.18-0.07-4.37,0.07-6.59
				c1.61-0.42,3.1-0.23,4.56-0.2c-0.48-0.13-1-0.09-1.49-0.15C81.22,20.33,80.18,20.32,79.22,20.48z"/>
			<path class="st2" d="M91.31,19.55c-1.09-1.04-2.34-1.8-3.83-2.13c-0.59-0.13-1.17-0.31-1.85-0.49c0.54-0.37,1.05-0.43,1.51-0.61
				c2.29-0.89,3.92-2.3,4.33-4.89c0.39-2.4-0.73-4.79-2.91-5.82c-1.37-0.64-2.83-0.85-4.33-0.86c-4.62-0.01-9.24-0.02-13.86-0.02
				c-0.23,0-0.49-0.08-0.78,0.13c1.57,1.01,1.84,2.54,1.84,4.2c-0.01,6.23-0.03,12.47,0.02,18.7c0.01,1.63-0.38,2.99-1.75,4
				c0.58-0.09,1.12-0.03,1.65-0.04c5.06-0.11,10.13,0.31,15.17-0.25c3.29-0.37,5.68-1.91,6.5-5.39
				C93.59,23.63,93.22,21.36,91.31,19.55z M78.25,14.72c0-2.08,0-4.17,0-6.4c1.66,0.12,3.3-0.31,4.83,0.56
				c0.18,0.1,0.42,0.16,0.46,0.42c1.79,1.1,1.34,4.49-0.99,5.35c-1.35,0.5-2.73,0.39-4.11,0.34C78.29,14.96,78.25,14.86,78.25,14.72
				z M86.32,25.04c-0.38,1.58-1.45,2.53-3.03,2.91c-0.58,0.14-1.18,0.23-1.78,0.17c-1.06,0.18-2.12,0.08-3.21,0.03
				c0-2.81,0-5.54,0-8.39c1.85,0.06,3.67-0.26,5.46,0.28c0.51,0.15,1.01,0.35,1.34,0.81C86.46,21.98,86.71,23.44,86.32,25.04z"/>
		</g>
		<g>
			<path class="st3" d="M79.22,20.48c-0.11,0.11-0.17,0.16-0.18,0.22c-0.1,2.24-0.29,4.48,0.07,6.71c0.01-2.18-0.07-4.37,0.07-6.59
				c1.61-0.42,3.1-0.23,4.56-0.2c-0.48-0.13-1-0.09-1.49-0.15C81.22,20.33,80.18,20.32,79.22,20.48z"/>
			<path class="st3" d="M87.61,23.33c-0.05-2.13-1.12-3.5-3.03-4.24c-2.47-0.96-5.04-0.37-7.62-0.51c0,3.65,0,7.15,0,10.83
				c2.04-0.06,3.99,0.09,5.94-0.11c1.12-0.11,2.13-0.39,3.02-1.16C87.43,26.85,87.65,25.16,87.61,23.33z M86.32,25.04
				c-0.38,1.58-1.45,2.53-3.03,2.91c-0.58,0.14-1.18,0.23-1.78,0.17c-1.06,0.18-2.12,0.08-3.21,0.03c0-2.81,0-5.54,0-8.39
				c1.85,0.06,3.67-0.26,5.46,0.28c0.51,0.15,1.01,0.35,1.34,0.81C86.46,21.98,86.71,23.44,86.32,25.04z"/>
		</g>
		<g>
			<path class="st4" d="M87.19,23.28c-0.1-2.09-1.59-3.75-3.64-4.13c-1.38-0.26-2.77-0.15-4.16-0.16c-0.68-0.01-1.37-0.11-2.01,0.1
				c0,3.3,0,6.55,0,9.9c1.31,0,2.51,0.02,3.71-0.01c0.69-0.01,1.4-0.03,2.07-0.16c1.16-0.22,2.19-0.69,3-1.63
				C87.16,26.04,87.25,24.69,87.19,23.28z M86.32,25.04c-0.38,1.58-1.45,2.53-3.03,2.91c-0.58,0.14-1.18,0.23-1.78,0.17
				c-1.06,0.18-2.12,0.08-3.21,0.03c0-2.81,0-5.54,0-8.39c1.85,0.06,3.67-0.26,5.46,0.28c0.51,0.15,1.01,0.35,1.34,0.81
				C86.46,21.98,86.71,23.44,86.32,25.04z"/>
			<path class="st4" d="M79.22,20.48c-0.11,0.11-0.17,0.16-0.18,0.22c-0.1,2.24-0.29,4.48,0.07,6.71c0.01-2.18-0.07-4.37,0.07-6.59
				c1.61-0.42,3.1-0.23,4.56-0.2c-0.48-0.13-1-0.09-1.49-0.15C81.22,20.33,80.18,20.32,79.22,20.48z"/>
		</g>
		<path class="st0" d="M29.49,20.86c-0.99-1.98-2.64-3.25-4.7-4.18c2.51-1.54,3.71-3.65,3.5-6.53C28.1,7.59,27,5.64,24.61,4.51
			c-1.76-0.83-3.63-1.05-5.54-1.05C14.46,3.46,9.84,3.45,5.22,3.45c-0.62,0-1.24,0-1.88,0c0,0.77,0,1.46,0,2.22
			C4.8,5.84,5.53,6.63,5.53,8.13c-0.02,6.64,0,13.29-0.01,19.93c0,1.79-0.52,2.45-2.2,2.77c0.03,0.74-0.14,1.49,0.13,2.22
			c4.59-0.02,9.17-0.02,13.76-0.07c1.92-0.02,3.86,0.04,5.76-0.35c2.88-0.59,5.33-1.84,6.58-4.69
			C30.57,25.59,30.44,23.21,29.49,20.86z M13.69,8.37c1.5,0.04,2.98-0.13,4.46,0.36c2.14,0.72,2.55,4.05,0.73,5.36
			c-0.71,0.51-1.49,0.83-2.36,0.87c-0.91,0.05-1.82,0.01-2.83,0.01C13.69,12.77,13.69,10.63,13.69,8.37z M19.59,27.48
			c-0.89,0.47-1.85,0.65-2.83,0.69c-1,0.05-2.01,0.01-3.1,0.01c0-2.84,0-5.57,0-8.39c1.79-0.01,3.52-0.15,5.21,0.33
			c1.62,0.46,2.61,1.64,2.77,3.23C21.82,25.18,21.06,26.7,19.59,27.48z"/>
		<path class="st5" d="M26.33,18.57c-1.11-0.78-2.34-1.3-3.73-1.75c1.14-0.52,2.06-1.12,2.89-1.86c1.87-1.67,2.2-3.82,1.65-6.07
			c-0.51-2.1-1.95-3.48-4.12-4.01c-1.36-0.33-2.72-0.54-4.12-0.54c-4.62,0.01-9.24,0-13.86,0.01c-0.27,0-0.57-0.11-0.8,0.16
			C4.16,5.02,4.63,5.02,4.89,5.18C5.74,5.72,6.26,6.4,6.34,7.47c0.14,1.68,0.07,3.35,0.08,5.02c0.02,5.22,0.01,10.44,0.01,15.66
			c0,1.48-0.34,2.77-1.9,3.37c-0.15,0.06-0.23,0.2-0.23,0.45c0.21,0.18,0.44,0.13,0.66,0.13c4.9,0,9.81,0.03,14.71-0.04
			c1.47-0.02,2.96-0.17,4.38-0.64c2.94-0.96,4.82-2.88,5.17-6.01C29.52,22.66,28.75,20.26,26.33,18.57z M13.69,8.37
			c1.5,0.04,2.98-0.13,4.46,0.36c2.14,0.72,2.55,4.05,0.73,5.36c-0.71,0.51-1.49,0.83-2.36,0.87c-0.91,0.05-1.82,0.01-2.83,0.01
			C13.69,12.77,13.69,10.63,13.69,8.37z M19.59,27.48c-0.89,0.47-1.85,0.65-2.83,0.69c-1,0.05-2.01,0.01-3.1,0.01
			c0-2.84,0-5.57,0-8.39c1.79-0.01,3.52-0.15,5.21,0.33c1.62,0.46,2.61,1.64,2.77,3.23C21.82,25.18,21.06,26.7,19.59,27.48z"/>
		<path class="st2" d="M27.95,21.11c-1.21-2.34-3.45-3.3-5.9-3.85c-0.36-0.08-0.7-0.13-1.15-0.34c0.79-0.31,1.48-0.51,2.1-0.84
			c2.29-1.2,4.03-2.83,3.82-5.85c-0.16-2.24-1.71-4.33-3.89-4.97c-1.31-0.39-2.66-0.52-4.02-0.52C14.5,4.72,10.07,4.72,5.64,4.72
			c-0.14,0-0.32-0.08-0.41,0.23C6.8,5.84,6.85,7.39,6.84,8.98c-0.01,6.17-0.02,12.34,0.02,18.51c0.01,1.63-0.11,3.15-1.77,4.21
			c4.99,0,9.77,0.06,14.54-0.04c1.55-0.03,3.12-0.17,4.65-0.73C28.84,29.26,29.69,24.47,27.95,21.11z M13.69,8.37
			c1.5,0.04,2.98-0.13,4.46,0.36c2.14,0.72,2.55,4.05,0.73,5.36c-0.71,0.51-1.49,0.83-2.36,0.87c-0.91,0.05-1.82,0.01-2.83,0.01
			C13.69,12.77,13.69,10.63,13.69,8.37z M19.59,27.48c-0.89,0.47-1.85,0.65-2.83,0.69c-1,0.05-2.01,0.01-3.1,0.01
			c0-2.84,0-5.57,0-8.39c1.79-0.01,3.52-0.15,5.21,0.33c1.62,0.46,2.61,1.64,2.77,3.23C21.82,25.18,21.06,26.7,19.59,27.48z"/>
		<path class="st6" d="M23.01,23.2c-0.19-1.76-1-3.09-2.64-3.85c-2.59-1.21-5.33-0.69-8.02-0.71c-0.04,0-0.09,0.08-0.15,0.15
			c0,3.48,0,6.98,0,10.59c1.88,0,3.65,0.06,5.41-0.02c1.33-0.06,2.6-0.37,3.66-1.3C22.77,26.74,23.21,25.1,23.01,23.2z M19.59,27.48
			c-0.89,0.47-1.85,0.65-2.83,0.69c-1,0.05-2.01,0.01-3.1,0.01c0-2.84,0-5.57,0-8.39c1.79-0.01,3.52-0.15,5.21,0.33
			c1.62,0.46,2.61,1.64,2.77,3.23C21.82,25.18,21.06,26.7,19.59,27.48z"/>
		<path class="st7" d="M18.53,19.18c-1.9-0.38-3.84-0.16-5.89-0.2c0,3.38,0,6.65,0,9.96C12.78,28.97,12.9,29,13.02,29
			c1.61-0.03,3.22,0.06,4.83-0.12c2.57-0.27,4.44-2.01,4.66-4.08C22.84,21.65,21.5,19.78,18.53,19.18z M19.59,27.48
			c-0.89,0.47-1.85,0.65-2.83,0.69c-1,0.05-2.01,0.01-3.1,0.01c0-2.84,0-5.57,0-8.39c1.79-0.01,3.52-0.15,5.21,0.33
			c1.62,0.46,2.61,1.64,2.77,3.23C21.82,25.18,21.06,26.7,19.59,27.48z"/>
		<path class="st0" d="M64.58,30.77C64.58,30.77,64.58,30.77,64.58,30.77c-0.27-0.01-0.53-0.07-0.76-0.23
			c-0.95-0.24-1.35-1-1.64-1.8c-1.54-4.34-3.04-8.69-4.55-13.03c-1.16-3.33-2.33-6.67-3.49-10C54,5.32,53.91,4.92,53.8,4.53
			c-0.22-0.31-0.18-0.74-0.46-1.01c-2.79,0-5.56,0-8.29,0c-0.08,0.11-0.13,0.15-0.15,0.21c-2.77,7.86-5.69,15.66-8.56,23.48
			c-0.62,1.7-1.24,3.36-3.28,3.71c0,0.78,0,1.44,0,2.1c3.43,0,6.85,0,10.24,0c0.25-0.26,0.08-0.55,0.2-0.77
			c-0.02-0.43-0.05-0.87-0.07-1.31c-0.42-0.19-0.88-0.22-1.18-0.58c-0.02-0.16-0.11-0.24-0.27-0.23c-0.48-0.37-0.46-0.89-0.35-1.39
			c0.25-1.23,0.65-2.41,1.09-3.58c3.25,0,6.43,0,9.63,0c0.46,1.28,0.95,2.51,1.34,3.77c0.37,1.17-0.17,1.87-1.41,1.99
			c-0.12,0.01-0.23,0.03-0.4,0.06c0,0.69,0,1.35,0,2.01h0c4.32,0,8.65,0,13.12,0C64.77,32.24,65.4,31.41,64.58,30.77z M44.59,20.13
			c1.01-2.78,2.01-5.5,3.03-8.32c1,2.8,1.97,5.53,2.96,8.32C48.57,20.13,46.66,20.13,44.59,20.13z"/>
		<path class="st8" d="M64.08,31.56c-1.45-0.21-2.2-1.25-2.67-2.56c-1.87-5.26-3.72-10.52-5.58-15.78
			c-1.04-2.94-2.09-5.87-3.15-8.84c-2.34,0-4.68,0-6.98,0c-0.3,0.24-0.33,0.58-0.44,0.87c-2.7,7.87-5.64,15.66-8.57,23.44
			c-0.45,1.2-1.14,2.18-2.33,2.73c-0.26,0.12-0.44,0.23-0.31,0.63c2.82,0,5.63,0,8.4,0c0.24-0.56-0.19-0.55-0.45-0.67
			c-1.05-0.53-1.67-1.59-1.37-2.64c0.41-1.45,0.94-2.86,1.44-4.33c3.66,0,7.26,0,10.91,0c0.54,1.6,1.24,3.18,1.57,4.9
			c0.16,0.81-0.12,1.4-0.72,1.91c-0.29,0.25-0.72,0.35-0.92,0.7c0.05,0.08,0.06,0.13,0.07,0.13c3.57,0.02,7.15,0.04,10.72,0.06
			C64.03,32.12,64.2,32,64.08,31.56z M44.59,20.13c1.01-2.78,2.01-5.5,3.03-8.32c1,2.8,1.97,5.53,2.96,8.32
			C48.57,20.13,46.66,20.13,44.59,20.13z"/>
		<path class="st2" d="M53.71,31.72c3.19,0,6.14,0,9.35,0c-1.49-0.82-1.97-2.08-2.42-3.36c-0.37-1.04-0.71-2.08-1.07-3.12
			c-2.13-6.06-4.25-12.13-6.41-18.18c-0.27-0.76-0.36-1.6-0.83-2.27c-2.16,0-4.27,0-6.45,0c-0.42,1.24-0.82,2.47-1.26,3.68
			c-0.98,2.69-2,5.38-2.98,8.07c-1.45,3.97-2.87,7.94-4.3,11.92c-0.45,1.25-1.13,2.32-2.29,3.03c-0.11,0.07-0.2,0.14-0.09,0.33
			c1.08-0.14,2.18-0.1,3.28-0.1c1.08,0,2.16,0,3.39,0c-1.58-1.33-1.81-2.13-1.23-3.86c0.43-1.28,0.87-2.56,1.33-3.9
			c3.9,0,7.72,0,11.54,0c0.56,1.37,1.02,2.74,1.49,4.11C55.21,29.46,55.34,30.72,53.71,31.72z M44.59,20.13
			c1.01-2.78,2.01-5.5,3.03-8.32c1,2.8,1.97,5.53,2.96,8.32C48.57,20.13,46.66,20.13,44.59,20.13z"/>
		<path class="st9" d="M47.6,8.48c-1.97,4.35-3.39,8.71-4.97,13.05c3.25,0,6.45,0,9.78,0C50.91,17.11,49.33,12.86,47.6,8.48z
			 M47.62,11.81c1,2.8,1.97,5.53,2.96,8.32c-2.01,0-3.93,0-6,0C45.6,17.35,46.59,14.63,47.62,11.81z"/>
		<path class="st10" d="M47.6,9.73c-1.61,3.74-2.93,7.47-4.26,11.31c2.86,0,5.57,0,8.4,0C50.45,17.2,49.06,13.5,47.6,9.73z
			 M44.59,20.13L44.59,20.13c1.01-2.78,2.01-5.5,3.03-8.32l0,0l0,0c1,2.8,1.97,5.53,2.96,8.32l0,0
			C48.57,20.13,46.66,20.13,44.59,20.13z"/>
		<path class="st11" d="M81.7,7.19c-1.01-0.04-2.02,0-3.03-0.06c-0.6-0.04-1.18-0.09-1.83,0.2c0.06,2.94,0.03,5.9-0.07,8.9
			c1.45,0.15,2.8,0.08,4.15,0.06c2.72-0.04,4.55-1.29,4.89-4.05C86.17,9.4,84.56,7.31,81.7,7.19z M82.55,14.65
			c-1.35,0.5-2.73,0.39-4.11,0.34l0,0l0,0c-0.15-0.03-0.2-0.13-0.2-0.27c0-2.08,0-4.17,0-6.4c1.66,0.12,3.3-0.31,4.83,0.56
			c0.18,0.1,0.42,0.16,0.46,0.42l0,0C85.33,10.4,84.88,13.79,82.55,14.65z"/>
		<path class="st12" d="M82.59,7.76c-1.7-0.43-3.44-0.19-5.22-0.22c0,2.78,0,5.49,0,8.33c1.81,0,3.55,0.16,5.23-0.37
			c2.18-0.68,2.76-2.06,2.83-4.29C85.48,9.61,84.3,8.19,82.59,7.76z M82.55,14.65c-1.35,0.5-2.73,0.39-4.11,0.34l0,0l0,0
			c-0.15-0.03-0.2-0.13-0.2-0.27c0-2.08,0-4.17,0-6.4c1.66,0.12,3.3-0.31,4.83,0.56c0.18,0.1,0.42,0.16,0.46,0.42l0,0
			C85.33,10.4,84.88,13.79,82.55,14.65z"/>
		<path class="st0" d="M30.08,21.56c0.01,0.04,0.03,0.08,0.05,0.12C30.11,21.64,30.1,21.6,30.08,21.56z"/>
		<path class="st13" d="M30.2,21.08c0.81,1.43,1.17,2.97,1.16,4.62c-0.02,3.27-2.31,6.27-5.4,7.38c-2.53,0.91-5.14,0.98-7.75,1.03
			c-4.33,0.08-8.67,0.03-13.01,0.04c-0.55,0-1.12,0.05-1.2-0.73c0.35-0.31,0.78-0.19,1.18-0.19c4.14-0.01,8.27,0.02,12.41-0.02
			c2.26-0.02,4.51-0.08,6.73-0.7c4.82-1.35,6.95-5.71,5.8-10.32C30.04,21.84,29.59,21.41,30.2,21.08z"/>
		<path class="st14" d="M94.79,21.24c1.64,3.34,1.43,6.53-0.93,9.46c-1.55,1.91-3.72,2.72-6.08,3.1c-2.13,0.34-4.29,0.26-6.43,0.3
			c-3.86,0.08-7.71,0.04-11.57,0.05c-0.54,0-1.12,0.07-1.17-0.72c0.35-0.32,0.78-0.19,1.18-0.2c4.2-0.01,8.41,0.01,12.61-0.01
			c1.79-0.01,3.59-0.04,5.37-0.38c3.46-0.66,6.25-2.91,6.97-6.47c0.28-1.38,0.26-2.79-0.05-4.19C94.62,21.9,94.17,21.47,94.79,21.24
			z"/>
		<path class="st15" d="M109.02,30.55c-0.1,0.02-0.16-0.02-0.17-0.12c-0.54-0.8-0.57-1.72-0.57-2.64c0-6.42,0-12.85,0-19.27
			c0-1.71,0.34-2.2,1.93-2.85c0.34-0.46-0.01-1.07,0.32-1.54c0.63-0.22,0.68,0.29,0.73,0.65c0.07,0.53,0.1,1.07-0.02,1.63
			c-0.09,0.06-0.19,0.15-0.3,0.18c-1.38,0.41-1.7,0.82-1.7,2.29c0,6.67,0,13.34-0.01,20C109.22,29.44,109.37,30.03,109.02,30.55z"/>
		<path class="st16" d="M54.17,4.55c0.41-0.07,0.59,0.21,0.69,0.51c1.23,3.51,2.46,7.02,3.68,10.54c1.37,3.93,2.74,7.85,4.12,11.78
			c0.3,0.86,0.51,1.76,0.95,2.57c-0.96,0.15-1.01-0.71-1.21-1.23c-0.5-1.29-0.95-2.61-1.39-3.92c-1.71-5.08-3.54-10.12-5.35-15.16
			c-0.51-1.42-0.96-2.87-1.45-4.3C54.12,5.11,53.9,4.83,54.17,4.55z"/>
		<path class="st17" d="M65.34,31.5c0.43-0.09,0.58,0.14,0.58,0.52c0.01,0.66,0,1.31,0,1.93c-0.33,0.26-0.66,0.19-0.97,0.19
			c-3.71,0.01-7.43,0-11.14,0c-0.38,0-0.77,0.03-1.02-0.35c-0.16-0.57,0.27-0.55,0.6-0.56c0.7-0.03,1.39-0.01,2.09-0.01
			c2.82,0,5.63,0,8.45,0c0.34,0,0.69,0.04,1.01-0.07C65.38,32.64,64.95,31.97,65.34,31.5z"/>
		<path class="st18" d="M110.56,31.51c0.5-0.13,0.64,0.24,0.68,0.58c0.07,0.65,0.13,1.31-0.04,1.89c-0.18,0.18-0.34,0.18-0.5,0.18
			c-3.5,0-7.01,0-10.51-0.01c-0.54,0-1.12,0.07-1.19-0.72c0.31-0.31,0.71-0.21,1.08-0.21c2.99-0.01,5.99,0,8.98-0.01
			c0.37,0,0.75,0.04,1.09-0.07C110.59,32.64,110.15,31.97,110.56,31.51z"/>
		<path class="st19" d="M42.27,30.36c-0.17,0.01-0.26-0.07-0.27-0.23c-0.09-1.59,0.24-3.03,1.1-4.66c2.97,0,5.96,0,8.98,0
			c0.26,0.11,0.24,0.37,0.3,0.7c-2.88,0-5.71,0-8.57,0c-0.54,1.21-0.95,2.39-1.2,3.62C42.56,30.02,42.63,30.31,42.27,30.36z"/>
		<path class="st0" d="M62.87,29.45c0,0.01,0.01,0.01,0.01,0.02C62.87,29.46,62.87,29.45,62.87,29.45z"/>
		<path class="st20" d="M43.87,31.5c0.58-0.11,0.61,0.32,0.63,0.68c0.04,0.59,0.01,1.19,0.01,1.81c-0.38,0.22-0.8,0.14-1.19,0.14
			c-2.74,0.01-5.49,0.01-8.23,0.01c-0.41,0-0.83,0.07-1.11-0.35c-0.05-0.75,0.52-0.57,0.91-0.57c2.53-0.02,5.06,0,7.59-0.01
			c0.37,0,0.76,0.09,1.11-0.15C43.8,32.57,43.72,32.01,43.87,31.5z"/>
		<path class="st21" d="M90.34,16.66c2.98-2.28,3.33-5.29,2.58-8.72c0.85,0.71,0.95,1.67,1.07,2.52c0.31,2.3-0.26,4.38-1.96,6.06
			C91.59,16.95,91.09,17.45,90.34,16.66z"/>
		<path class="st22" d="M26.53,17.09c-0.36,0.01-0.6-0.12-0.89-0.42c3.02-2.28,3.59-5.31,2.49-8.87
			C30.36,10.3,29.5,15.11,26.53,17.09z"/>
		<g>
			<g>
				<polygon class="st0" points="98.23,33.01 98.23,33.01 98.23,33.01 				"/>
				<path class="st0" d="M98.52,30.86c-0.12,0.03-0.26,0.02-0.3,0.14v2.01c3.93,0,7.87,0,11.84,0c0.22-0.65,0.06-1.31,0.14-1.91
					c-0.16-0.27-0.47-0.15-0.66-0.27c-0.29-0.09-0.53-0.24-0.72-0.43c-0.35-0.25-0.5-0.61-0.56-1.01c-0.06-0.44-0.14-0.88-0.14-1.32
					c-0.01-6.64-0.01-13.29,0.01-19.93c0-1.63,0.41-2.11,1.99-2.6c0.11-0.7,0.04-1.42,0.04-2.14H98.19c0,0.51-0.01,0.85,0,1.2
					c0.01,0.34-0.07,0.7,0.08,1.02c1.91,0.4,2,1.18,1.99,2.76c0,0.41,0,0.82,0,1.23c0.01,6.32,0.01,12.65,0.01,18.97
					C100.27,30.02,99.89,30.5,98.52,30.86z"/>
			</g>
		</g>
		<path class="st23" d="M109.16,32.05c-3.3,0.32-6.63-0.01-9.93,0.09c-0.15-0.44,0.15-0.52,0.36-0.62c1-0.51,1.49-1.29,1.49-2.43
			c-0.01-7.15-0.01-14.31,0-21.46c0-1.15-0.41-2.02-1.48-2.53c-0.22-0.11-0.48-0.21-0.42-0.64c3.33,0,6.66,0,10,0
			c0.12,0.47-0.26,0.55-0.51,0.71c-0.92,0.59-1.4,1.38-1.39,2.51c0.02,7,0.01,13.99,0.01,20.99c0,1.3,0.34,2.37,1.69,2.87
			C109.18,31.6,109.26,31.77,109.16,32.05z"/>
		<path class="st2" d="M99.98,4.75c2.82,0,5.47,0,8.13,0c0.01,0.08,0.04,0.17,0.01,0.19c-1.17,1.03-1.39,2.35-1.38,3.85
			c0.05,6.58,0.04,13.17,0.01,19.75c0,1.2,0.3,2.22,1.26,3.12c-2.58,0-5.06,0-7.55,0c-0.12-0.18,0.05-0.27,0.15-0.36
			c0.79-0.68,0.99-1.58,0.99-2.56c0-6.96,0-13.93,0-20.89C101.61,6.6,101.11,5.6,99.98,4.75z"/>
		<path class="st24" d="M21.32,10.74c-0.06-1.07-0.53-1.88-1.37-2.47C19.03,7.63,18,7.24,16.86,7.2c-0.88-0.03-1.77-0.04-2.65-0.14
			c-0.65-0.08-1.32-0.04-2.02,0.24c0,2.97,0,5.96,0,8.99c1.6,0,3.21,0.04,4.81-0.02c0.81-0.03,1.6-0.28,2.31-0.74
			C21.09,14.39,21.43,12.68,21.32,10.74z M18.88,14.1c-0.71,0.51-1.49,0.83-2.36,0.87c-0.91,0.05-1.82,0.01-2.83,0.01
			c0-2.21,0-4.35,0-6.61c1.5,0.04,2.98-0.13,4.46,0.36C20.29,9.46,20.7,12.79,18.88,14.1z"/>
		<path class="st25" d="M17.63,7.75c-1.59-0.33-3.2-0.17-4.88-0.19c0,2.84,0,5.54,0,8.29c1.64,0.04,3.22,0.14,4.78-0.15
			c2.04-0.37,3.34-2.06,3.35-4.21C20.88,9.42,19.83,8.2,17.63,7.75z M18.88,14.1c-0.71,0.51-1.49,0.83-2.36,0.87
			c-0.91,0.05-1.82,0.01-2.83,0.01c0-2.21,0-4.35,0-6.61c1.5,0.04,2.98-0.13,4.46,0.36C20.29,9.46,20.7,12.79,18.88,14.1z"/>
		<path class="st26" d="M47.58,12.96c0.39,0.34,0.35,0.76,0.56,1.07c-0.72,1.95-1.43,3.87-2.13,5.76c-0.3,0.19-0.57,0.16-0.96,0.04
			C45.89,17.55,46.73,15.28,47.58,12.96z"/>
		<path class="st27" d="M79.19,27.87c-0.16-0.09-0.33-0.18-0.51-0.27c0-2.44,0-4.87,0-7.44c1.74-0.01,3.45-0.19,5.13,0.28
			c0.25,0.07,0.48,0.18,0.53,0.48c-1.6,0-3.2,0-4.78,0c-0.29,0.45-0.15,0.9-0.16,1.32c-0.02,1.54-0.01,3.09-0.02,4.63
			C79.37,27.21,79.43,27.57,79.19,27.87z"/>
		<path class="st28" d="M82.83,9.33c-1.13,0-2.26,0-3.48,0c-0.32,1.77,0.12,3.56-0.3,5.45c-0.46-0.72-0.58-4.05-0.31-6.05
			c1.36,0.07,2.77-0.28,4.09,0.38C82.83,9.18,82.83,9.26,82.83,9.33z"/>
		<path class="st29" d="M13.95,20.1c1.96,0.13,3.93-0.39,5.92,0.84c-1.83,0-3.44,0-5.15,0c0,2.24,0,4.5,0,6.6
			c-0.26,0.41-0.47,0.36-0.77,0.29C13.95,25.31,13.95,22.77,13.95,20.1z"/>
		<path class="st30" d="M14.08,14.74c-0.38-1.97,0.1-3.96-0.07-6.04c1.59,0.07,3.1-0.3,4.47,0.62c-1.23,0.15-2.47,0.04-3.73,0.2
			c-0.15,0.95-0.04,1.86-0.09,2.76c-0.04,0.83,0.14,1.69-0.13,2.48C14.38,14.76,14.23,14.75,14.08,14.74z"/>
	</g>
	<path class="st0" d="M104.2,45.11c-1.01-0.01-1.71-0.78-1.76-1.78c-0.03-0.78,0.87-1.73,1.74-1.68c1.01,0.05,1.79,0.86,1.77,1.77
		C105.93,44.37,105.13,45.2,104.2,45.11z"/>
	<path class="st0" d="M12.96,45.11c-1.01-0.01-1.71-0.78-1.76-1.78c-0.03-0.78,0.87-1.73,1.74-1.68c1.01,0.05,1.79,0.86,1.77,1.77
		C14.69,44.37,13.89,45.2,12.96,45.11z"/>
	<g>
		<path class="st0" d="M22.28,40.62c0.44,0,0.78,0,1.01-0.01c0.24-0.01,0.46-0.02,0.67-0.04l-0.02,0.68
			c-0.17-0.02-0.35-0.03-0.55-0.04c-0.2-0.01-0.42-0.01-0.68-0.01c0.17,0.16,0.3,0.33,0.38,0.51c0.08,0.18,0.12,0.38,0.12,0.6
			c0,0.53-0.23,0.98-0.68,1.34c-0.45,0.36-1.01,0.54-1.69,0.54c-0.07,0-0.2-0.01-0.39-0.02c-0.04,0-0.07-0.01-0.09-0.01
			c-0.08,0.05-0.16,0.11-0.24,0.17c-0.08,0.06-0.18,0.14-0.28,0.24c0.08,0.12,0.16,0.22,0.24,0.3c0.08,0.08,0.16,0.16,0.25,0.22
			h0.62h1.1c0.62,0,1.08,0.11,1.37,0.34c0.3,0.23,0.45,0.58,0.45,1.05c0,0.31-0.1,0.63-0.29,0.96c-0.19,0.33-0.47,0.62-0.81,0.87
			c-0.33,0.25-0.7,0.44-1.13,0.58c-0.43,0.14-0.85,0.21-1.27,0.21c-0.67,0-1.21-0.15-1.64-0.46c-0.42-0.31-0.64-0.69-0.64-1.15
			c0-0.28,0.09-0.55,0.28-0.8s0.49-0.53,0.93-0.83c-0.17-0.16-0.31-0.32-0.43-0.49c-0.11-0.17-0.2-0.35-0.27-0.54
			c0.14-0.15,0.31-0.29,0.49-0.42c0.19-0.13,0.4-0.26,0.63-0.39c-0.48-0.12-0.84-0.32-1.1-0.61c-0.25-0.29-0.38-0.65-0.38-1.1
			c0-0.58,0.24-1.07,0.72-1.48c0.48-0.41,1.07-0.61,1.76-0.61c0.31,0,0.59,0.03,0.83,0.09C21.82,40.38,22.05,40.48,22.28,40.62z
			 M19.72,46.19c-0.15,0.16-0.27,0.31-0.34,0.46c-0.07,0.15-0.11,0.29-0.11,0.44c0,0.34,0.15,0.62,0.45,0.85
			c0.3,0.23,0.69,0.34,1.16,0.34c0.54,0,0.99-0.13,1.36-0.39c0.37-0.26,0.55-0.56,0.55-0.92c0-0.29-0.11-0.49-0.33-0.61
			c-0.22-0.12-0.67-0.17-1.35-0.17H19.72z M20.75,40.76c-0.35,0-0.62,0.12-0.83,0.37c-0.2,0.25-0.3,0.58-0.3,1.01
			c0,0.47,0.1,0.84,0.3,1.11c0.2,0.27,0.49,0.4,0.85,0.4c0.36,0,0.64-0.12,0.85-0.36c0.2-0.24,0.3-0.58,0.3-1.01
			c0-0.5-0.1-0.88-0.3-1.14C21.43,40.89,21.14,40.76,20.75,40.76z"/>
		<path class="st0" d="M27.45,40.22c0.9,0,1.64,0.28,2.21,0.83c0.58,0.55,0.86,1.25,0.86,2.1c0,0.89-0.3,1.63-0.9,2.23
			c-0.6,0.6-1.35,0.89-2.25,0.89s-1.63-0.28-2.2-0.84c-0.57-0.56-0.85-1.28-0.85-2.15c0-0.86,0.3-1.58,0.91-2.18
			C25.85,40.52,26.59,40.22,27.45,40.22z M27.33,40.98c-0.47,0-0.84,0.18-1.1,0.53c-0.26,0.35-0.39,0.85-0.39,1.49
			c0,0.78,0.15,1.4,0.44,1.85c0.3,0.46,0.69,0.68,1.19,0.68c0.48,0,0.85-0.18,1.12-0.55c0.27-0.37,0.41-0.87,0.41-1.51
			c0-0.76-0.15-1.37-0.46-1.81C28.26,41.2,27.85,40.98,27.33,40.98z"/>
		<path class="st0" d="M33.04,40.25c-0.03,0.68-0.05,1.3-0.06,1.85c-0.01,0.55-0.02,1.01-0.02,1.38c0,0.67,0.08,1.13,0.24,1.4
			c0.16,0.26,0.42,0.4,0.79,0.4c0.18,0,0.39-0.04,0.62-0.13c0.23-0.08,0.48-0.21,0.74-0.37c0.01-0.55,0.02-1.01,0.03-1.4
			c0.01-0.38,0.01-0.69,0.01-0.91v-0.26c0-0.48-0.04-0.77-0.13-0.89c-0.08-0.12-0.25-0.18-0.48-0.18c-0.04,0-0.08,0-0.13,0
			c-0.04,0-0.09,0-0.13,0.01l-0.03-0.46c0.4-0.04,0.8-0.08,1.18-0.14c0.38-0.05,0.76-0.12,1.13-0.19c-0.03,0.89-0.05,1.57-0.05,2.03
			c-0.01,0.46-0.01,0.89-0.01,1.29v0.53c0,0.5,0.03,0.81,0.09,0.94c0.06,0.13,0.18,0.19,0.37,0.19c0.05,0,0.1,0,0.15-0.01
			c0.06-0.01,0.11-0.02,0.18-0.03l0.06,0.47l-2.2,0.49v-0.89c-0.44,0.32-0.82,0.55-1.13,0.68c-0.31,0.13-0.62,0.2-0.91,0.2
			c-0.58,0-1-0.18-1.29-0.54c-0.28-0.36-0.42-0.9-0.42-1.63c0-0.15,0-0.28,0-0.38c0-0.1,0-0.2,0.01-0.3l0.02-0.78
			c0-0.08,0-0.18,0.01-0.3c0-0.12,0.01-0.21,0.01-0.26c0-0.38-0.03-0.64-0.1-0.77c-0.07-0.13-0.18-0.2-0.35-0.2
			c-0.07,0-0.17,0.01-0.3,0.02c-0.02,0-0.03,0.01-0.03,0.01l-0.03-0.47c0.36-0.05,0.73-0.1,1.1-0.18
			C32.3,40.43,32.67,40.34,33.04,40.25z"/>
		<path class="st0" d="M40.18,40.18c-0.03,0.36-0.05,0.67-0.06,0.93c-0.02,0.26-0.03,0.48-0.03,0.67c0.34-0.57,0.63-0.96,0.88-1.18
			c0.25-0.21,0.51-0.32,0.81-0.32c0.2,0,0.38,0.07,0.53,0.22s0.22,0.33,0.22,0.54c0,0.2-0.05,0.35-0.14,0.47
			c-0.09,0.12-0.22,0.17-0.38,0.17c-0.09,0-0.21-0.03-0.37-0.09c-0.16-0.06-0.28-0.09-0.37-0.09c-0.17,0-0.35,0.07-0.52,0.2
			c-0.17,0.13-0.37,0.35-0.6,0.66c0,0.12,0,0.31-0.01,0.56c0,0.25-0.01,0.44-0.01,0.58v0.64c0,0.66,0.06,1.08,0.18,1.25
			c0.12,0.17,0.35,0.26,0.7,0.26c0.02,0,0.06,0,0.11-0.01c0.05,0,0.09-0.01,0.12-0.01v0.48h-0.02c-0.85-0.05-1.41-0.08-1.67-0.08
			c-0.2,0-0.72,0.02-1.55,0.07h-0.12v-0.49h0.16c0.29,0,0.48-0.07,0.59-0.21c0.1-0.14,0.16-0.48,0.16-1.01v-0.7v-1.25
			c0-0.58-0.04-0.93-0.11-1.07c-0.07-0.14-0.2-0.2-0.4-0.2c-0.02,0-0.07,0-0.13,0.01c-0.06,0.01-0.11,0.02-0.15,0.02l-0.05-0.46
			c0.36-0.06,0.73-0.13,1.09-0.22C39.42,40.43,39.79,40.31,40.18,40.18z"/>
		<path class="st0" d="M44.86,40.22c-0.02,0.12-0.03,0.32-0.05,0.6c-0.01,0.13-0.01,0.23-0.02,0.29c0.47-0.32,0.86-0.55,1.17-0.69
			s0.6-0.2,0.86-0.2c0.35,0,0.65,0.08,0.9,0.24c0.25,0.16,0.45,0.4,0.6,0.73c0.47-0.35,0.87-0.59,1.2-0.74
			c0.33-0.15,0.64-0.22,0.93-0.22c0.54,0,0.95,0.18,1.24,0.54c0.29,0.36,0.44,0.88,0.44,1.55v0.49l-0.02,1.44
			c0,0.03,0,0.1-0.01,0.23c0,0.13-0.01,0.24-0.01,0.35c0,0.33,0.04,0.54,0.13,0.64c0.09,0.1,0.25,0.15,0.5,0.15h0.14v0.48
			c-0.31-0.02-0.58-0.04-0.83-0.05c-0.25-0.01-0.47-0.02-0.65-0.02c-0.13,0-0.32,0.01-0.54,0.02c-0.23,0.01-0.5,0.03-0.81,0.05
			l0.01-0.48c0.02,0,0.04,0.01,0.07,0.01c0.03,0,0.07,0,0.11,0c0.23,0,0.39-0.08,0.47-0.23c0.08-0.16,0.12-0.55,0.12-1.17v-0.64
			c0-0.13,0-0.31,0.01-0.53c0.01-0.22,0.01-0.37,0.01-0.46c0-0.48-0.08-0.82-0.25-1.05c-0.16-0.22-0.42-0.33-0.77-0.33
			c-0.16,0-0.36,0.04-0.58,0.12c-0.22,0.08-0.47,0.21-0.75,0.37l-0.02,2.65c0,0.18,0,0.35-0.01,0.52c0,0.02,0,0.03,0,0.03
			c0,0.3,0.04,0.49,0.11,0.58c0.07,0.09,0.22,0.13,0.43,0.13h0.14v0.48c-0.3-0.02-0.58-0.04-0.83-0.05
			c-0.25-0.01-0.47-0.02-0.66-0.02c-0.11,0-0.26,0.01-0.47,0.02c-0.21,0.01-0.46,0.03-0.76,0.05v-0.48c0.02,0,0.05,0.01,0.07,0.01
			c0.03,0,0.06,0,0.11,0c0.22,0,0.37-0.08,0.44-0.24c0.08-0.16,0.12-0.52,0.12-1.08v-0.86v-0.88c0-0.48-0.08-0.82-0.24-1.04
			c-0.16-0.21-0.41-0.32-0.75-0.32c-0.17,0-0.37,0.04-0.59,0.12c-0.22,0.08-0.47,0.2-0.74,0.35c0,0.13-0.01,0.31-0.01,0.55
			c-0.02,1.09-0.03,1.84-0.03,2.25c0,0.53,0.04,0.85,0.11,0.96c0.07,0.11,0.23,0.17,0.46,0.17h0.17v0.48
			c-0.33-0.02-0.62-0.04-0.87-0.05c-0.25-0.01-0.46-0.02-0.64-0.02c-0.17,0-0.5,0.02-0.99,0.05c-0.17,0.01-0.3,0.02-0.38,0.02
			l-0.01-0.48h0.14c0.47,0,0.71-0.47,0.71-1.41c0-0.12,0.01-0.21,0.01-0.27v-1.72c0-0.44-0.03-0.72-0.1-0.85
			c-0.07-0.13-0.19-0.2-0.37-0.2c-0.03,0-0.06,0-0.11,0.01c-0.05,0.01-0.1,0.01-0.16,0.03l-0.05-0.45c0.28-0.05,0.57-0.12,0.89-0.2
			C43.93,40.48,44.35,40.37,44.86,40.22z"/>
		<path class="st0" d="M58.6,43.04l-2.4,0.01c-0.41,0-0.72,0-0.92,0.01c-0.2,0.01-0.39,0.02-0.56,0.04c0,0.69,0.17,1.22,0.51,1.62
			c0.34,0.39,0.81,0.59,1.41,0.59c0.29,0,0.57-0.04,0.85-0.14c0.28-0.09,0.57-0.23,0.85-0.41l0.26,0.49
			c-0.44,0.35-0.88,0.62-1.31,0.79c-0.43,0.17-0.85,0.26-1.28,0.26c-0.8,0-1.46-0.27-1.97-0.8c-0.51-0.53-0.77-1.22-0.77-2.06
			c0-0.91,0.28-1.67,0.83-2.29c0.56-0.61,1.24-0.92,2.05-0.92c0.72,0,1.31,0.26,1.76,0.77C58.36,41.5,58.59,42.18,58.6,43.04z
			 M57.24,42.33c-0.08-0.45-0.23-0.8-0.44-1.05c-0.21-0.25-0.47-0.38-0.76-0.38c-0.35,0-0.64,0.14-0.87,0.41
			c-0.23,0.27-0.37,0.65-0.43,1.14h0.36c0.47,0,0.88-0.01,1.23-0.03C56.68,42.41,56.98,42.38,57.24,42.33z"/>
		<path class="st0" d="M60.88,39.22l0.51,0.14c-0.02,0.22-0.04,0.42-0.06,0.62c-0.02,0.19-0.03,0.38-0.03,0.55
			c0.5,0,0.88,0,1.12-0.01c0.25-0.01,0.47-0.02,0.68-0.03l-0.15,0.78c-0.24-0.02-0.5-0.03-0.78-0.04c-0.28-0.01-0.57-0.01-0.87-0.01
			c-0.01,0.51-0.02,0.94-0.03,1.3c-0.01,0.36-0.01,0.64-0.01,0.84c0,0.84,0.06,1.39,0.18,1.64c0.12,0.25,0.33,0.38,0.64,0.38
			c0.12,0,0.26-0.02,0.42-0.07c0.16-0.05,0.34-0.13,0.53-0.23l0.22,0.48c-0.42,0.24-0.8,0.42-1.13,0.54
			c-0.33,0.12-0.6,0.19-0.82,0.19c-0.49,0-0.85-0.15-1.09-0.46c-0.23-0.31-0.35-0.79-0.35-1.43c0-0.13,0.01-0.54,0.03-1.25
			c0.02-0.71,0.03-1.35,0.03-1.93c-0.01,0-0.1,0-0.27,0.01c-0.17,0.01-0.38,0.02-0.61,0.02V40.7c0.44-0.07,0.82-0.22,1.12-0.46
			C60.47,39.99,60.71,39.65,60.88,39.22z"/>
		<path class="st0" d="M72.18,45.09c-0.44,0.4-0.88,0.7-1.33,0.91c-0.44,0.21-0.87,0.31-1.28,0.31c-0.74,0-1.34-0.22-1.81-0.67
			c-0.47-0.45-0.71-1.01-0.71-1.7c0-0.57,0.18-1.05,0.54-1.44c0.36-0.39,0.89-0.7,1.6-0.91c-0.31-0.28-0.54-0.58-0.69-0.87
			c-0.16-0.3-0.23-0.61-0.23-0.93c0-0.57,0.22-1.05,0.66-1.44c0.44-0.39,0.99-0.59,1.65-0.59c0.55,0,1,0.15,1.34,0.44
			c0.34,0.29,0.51,0.67,0.51,1.14c0,0.46-0.13,0.87-0.39,1.23c-0.26,0.36-0.65,0.68-1.17,0.95l1.87,2.14
			c0.36-0.4,0.66-0.83,0.89-1.27c0.23-0.44,0.34-0.79,0.34-1.04c0-0.08-0.02-0.15-0.05-0.21c-0.03-0.06-0.07-0.1-0.13-0.14
			c-0.05-0.02-0.11-0.04-0.2-0.05c-0.09-0.01-0.2-0.02-0.33-0.02v-0.52c0.1,0,0.23,0.01,0.41,0.02c0.47,0.03,0.78,0.05,0.94,0.05
			c0.15,0,0.33-0.01,0.55-0.02c0.22-0.01,0.48-0.03,0.76-0.05v0.52h-0.19c-0.21,0-0.37,0.04-0.48,0.11
			c-0.11,0.07-0.24,0.25-0.37,0.52c-0.27,0.56-0.55,1.05-0.83,1.46c-0.28,0.41-0.58,0.77-0.9,1.08l0.25,0.28
			c0.31,0.35,0.56,0.58,0.76,0.71c0.2,0.13,0.4,0.19,0.6,0.19c0.16,0,0.34-0.05,0.53-0.16c0.19-0.11,0.38-0.25,0.57-0.45l0.33,0.32
			c-0.3,0.43-0.62,0.76-0.97,0.98c-0.35,0.22-0.72,0.33-1.12,0.33c-0.31,0-0.61-0.09-0.9-0.26C72.94,45.87,72.59,45.55,72.18,45.09z
			 M71.78,44.63l-2.21-2.62c-0.38,0.16-0.65,0.35-0.84,0.59c-0.18,0.24-0.27,0.52-0.27,0.85c0,0.49,0.18,0.92,0.53,1.29
			c0.36,0.37,0.78,0.55,1.26,0.55c0.25,0,0.5-0.06,0.75-0.17C71.26,45.01,71.52,44.85,71.78,44.63z M70.55,41.16
			c0.28-0.21,0.49-0.45,0.64-0.73c0.15-0.28,0.22-0.58,0.22-0.91c0-0.31-0.09-0.57-0.28-0.77c-0.19-0.21-0.43-0.31-0.73-0.31
			c-0.25,0-0.46,0.09-0.63,0.26c-0.17,0.17-0.25,0.4-0.25,0.67c0,0.24,0.09,0.51,0.26,0.81C69.94,40.48,70.2,40.81,70.55,41.16z"/>
		<path class="st0" d="M81.87,37.19c-0.03,0.71-0.05,1.38-0.07,2c-0.02,0.62-0.02,1.22-0.02,1.78c0.33-0.24,0.65-0.42,0.94-0.53
			c0.3-0.12,0.59-0.17,0.88-0.17c0.69,0,1.27,0.26,1.75,0.79c0.48,0.53,0.71,1.18,0.71,1.96c0,0.94-0.33,1.72-0.99,2.32
			c-0.66,0.6-1.52,0.9-2.58,0.9c-0.36,0-0.72-0.03-1.08-0.08c-0.35-0.05-0.7-0.13-1.03-0.24c0.02-1.3,0.04-2.36,0.05-3.2
			c0.01-0.84,0.02-1.44,0.02-1.82v-0.73c0-0.87-0.04-1.43-0.11-1.67c-0.08-0.24-0.22-0.37-0.44-0.37c-0.02,0-0.04,0-0.08,0.01
			c-0.04,0.01-0.09,0.01-0.16,0.02l-0.05-0.48c0.37-0.05,0.74-0.12,1.12-0.2C81.1,37.4,81.48,37.3,81.87,37.19z M81.87,45.22
			c0.16,0.09,0.32,0.16,0.48,0.21c0.16,0.05,0.33,0.07,0.49,0.07c0.55,0,0.98-0.18,1.29-0.55c0.31-0.37,0.47-0.87,0.47-1.51
			c0-0.68-0.15-1.22-0.45-1.62c-0.3-0.4-0.7-0.6-1.21-0.6c-0.18,0-0.37,0.03-0.56,0.09c-0.19,0.06-0.39,0.16-0.59,0.28
			c0,0.21-0.01,0.43-0.01,0.64c0,0.22,0,0.5,0,0.85c0,0.71,0.01,1.22,0.02,1.52C81.82,44.89,81.84,45.1,81.87,45.22z"/>
		<path class="st0" d="M92.15,45.12l0.21,0.44c-0.35,0.23-0.66,0.4-0.94,0.51c-0.28,0.11-0.53,0.17-0.74,0.17
			c-0.26,0-0.47-0.07-0.61-0.2c-0.14-0.14-0.22-0.34-0.24-0.62c-0.42,0.29-0.77,0.5-1.06,0.63s-0.55,0.19-0.78,0.19
			c-0.4,0-0.75-0.16-1.03-0.47c-0.28-0.31-0.43-0.69-0.43-1.12c0-0.74,0.82-1.29,2.47-1.67c0.36-0.08,0.64-0.15,0.84-0.2
			c0-0.1,0.01-0.19,0.01-0.28c0-0.09,0-0.18,0-0.26c0-0.41-0.08-0.71-0.24-0.9c-0.16-0.19-0.41-0.28-0.76-0.28
			c-0.23,0-0.42,0.05-0.58,0.14c-0.16,0.09-0.25,0.2-0.26,0.32c0,0.02-0.01,0.04-0.01,0.07c-0.02,0.38-0.26,0.58-0.72,0.58
			c-0.17,0-0.3-0.03-0.4-0.09c-0.09-0.06-0.14-0.14-0.14-0.25c0-0.31,0.28-0.65,0.85-1.03c0.57-0.38,1.16-0.57,1.78-0.57
			c0.61,0,1.07,0.16,1.38,0.47c0.31,0.32,0.47,0.78,0.47,1.39c0,0.18-0.01,0.56-0.04,1.14c-0.03,0.58-0.04,1.06-0.04,1.46
			c0,0.23,0.03,0.4,0.09,0.51c0.06,0.1,0.16,0.16,0.29,0.16c0.07,0,0.16-0.02,0.27-0.06C91.9,45.25,92.02,45.2,92.15,45.12z
			 M89.86,43.36c-0.08,0.02-0.21,0.06-0.37,0.1c-1.1,0.3-1.64,0.66-1.64,1.08c0,0.23,0.07,0.42,0.22,0.58
			c0.15,0.16,0.34,0.23,0.56,0.23c0.15,0,0.31-0.04,0.5-0.11c0.19-0.07,0.43-0.2,0.73-0.37V43.36z"/>
		<path class="st0" d="M94.59,40.18c-0.03,0.36-0.05,0.67-0.06,0.93c-0.02,0.26-0.03,0.48-0.03,0.67c0.34-0.57,0.63-0.96,0.88-1.18
			c0.25-0.21,0.51-0.32,0.81-0.32c0.2,0,0.38,0.07,0.53,0.22c0.15,0.15,0.22,0.33,0.22,0.54c0,0.2-0.05,0.35-0.14,0.47
			c-0.09,0.12-0.22,0.17-0.38,0.17c-0.09,0-0.21-0.03-0.37-0.09c-0.16-0.06-0.28-0.09-0.37-0.09c-0.17,0-0.35,0.07-0.52,0.2
			c-0.17,0.13-0.37,0.35-0.6,0.66c0,0.12,0,0.31-0.01,0.56c0,0.25-0.01,0.44-0.01,0.58v0.64c0,0.66,0.06,1.08,0.18,1.25
			c0.12,0.17,0.35,0.26,0.7,0.26c0.02,0,0.06,0,0.11-0.01c0.05,0,0.09-0.01,0.12-0.01v0.48h-0.02c-0.85-0.05-1.41-0.08-1.67-0.08
			c-0.2,0-0.72,0.02-1.55,0.07h-0.11v-0.49h0.16c0.29,0,0.48-0.07,0.59-0.21c0.1-0.14,0.16-0.48,0.16-1.01v-0.7v-1.25
			c0-0.58-0.04-0.93-0.11-1.07c-0.07-0.14-0.2-0.2-0.4-0.2c-0.02,0-0.07,0-0.13,0.01c-0.06,0.01-0.11,0.02-0.15,0.02l-0.05-0.46
			c0.36-0.06,0.73-0.13,1.09-0.22C93.83,40.43,94.21,40.31,94.59,40.18z"/>
	</g>
</g>
</svg>
